# xmcd
#
# Track frame offsets:
#  150
#  12790
#  25872
#  38877
#  51652
#  64180
#  78650
#  89977
#  103612
#  115112
#  126250
#  137067
#  152580
#  163995
#  179570
#
# Disc length: 2670 seconds
#
# Revision: 0
# Processed by: cddbd v1.4PL0 Copyright (c) Steve Scherf et al.
# Submitted via: AltoMP3_Maker 3.0
#
DISCID=d60a6c0f
DTITLE=Various Artist - Ultimate Soul cd1
DYEAR=1900
DGENRE=
TTITLE0=Soul Man
TTITLE1=When A Man Loves A Woman
TTITLE2=Knock On Wood
TTITLE3=Love Really Hurts Without You
TTITLE4=Higher and Higher
TTITLE5=Rock Your Baby
TTITLE6=Dancing In The Streets
TTITLE7=Sex Machine
TTITLE8=Hold On I'm Coming
TTITLE9=Slip Away
TTITLE10=(Sittin' on) the Dock of the Bay
TTITLE11=If You Don't know Me By Now
TTITLE12=Up On The Roof
TTITLE13=Drift Away
TTITLE14=Midnight Train To Georgia
EXTD=
EXTT0=
EXTT1=
EXTT2=
EXTT3=
EXTT4=
EXTT5=
EXTT6=
EXTT7=
EXTT8=
EXTT9=
EXTT10=
EXTT11=
EXTT12=
EXTT13=
EXTT14=
PLAYORDER=
